<?xml version="1.0" encoding="utf-8"?>
<!-- Generator: Adobe Illustrator 27.1.1, SVG Export Plug-In . SVG Version: 6.00 Build 0)  -->
<svg version="1.1" id="Layer_1" xmlns="http://www.w3.org/2000/svg" xmlns:xlink="http://www.w3.org/1999/xlink" x="0px" y="0px"
	 viewBox="0 0 181 209" style="enable-background:new 0 0 181 209;" xml:space="preserve">
<style type="text/css">
	.st0{fill:#F7F7F7;stroke:#99A5AB;stroke-width:10.6698;stroke-linecap:round;stroke-linejoin:round;stroke-miterlimit:10;}
	.st1{opacity:0.25;}
	.st2{fill:#0101FF;}
	.st3{fill:#01FF01;}
	.st4{fill:#FF0101;}
	.st5{font-family:'Courier-Bold';}
	.st6{font-size:28px;}
	.st7{font-family:'Courier';}
	.st8{font-size:18px;}
</style>
<g id="surface2602">
	<path class="st0" d="M6.7,152.9l83.8,48.4l83.8-48.4V56.1L90.5,7.7L6.7,56.1V152.9z"/>
	<g class="st1">
		<g id="blue" transform="rotate(180,457,415)">
			<path class="st2" d="M147.9,97.2c16.8,9.7,22.6,31.2,12.9,48.1s-31.2,22.6-48.1,12.9c-16.8-9.7-22.6-31.2-12.9-48.1
				c3.1-5.4,7.5-9.8,12.9-12.9l10.6,18.4c-6.7,3.9-9,12.4-5.1,19.1s12.4,9,19.1,5.1s9-12.4,5.1-19.1c-1.2-2.1-3-3.9-5.1-5.1
				L147.9,97.2z"/>
		</g>
		<g id="green" transform="rotate(240,142,415)">
			<path class="st3" d="M85.9,127.7c0,19.4-15.8,35.2-35.2,35.2s-35.2-15.8-35.2-35.2s15.8-35.2,35.2-35.2c6.2,0,12.2,1.6,17.6,4.7
				l-10.6,18.4c-6.7-3.9-15.3-1.6-19.1,5.1c-3.9,6.7-1.6,15.3,5.1,19.1c6.7,3.8,15.3,1.6,19.1-5.1c1.2-2.1,1.9-4.5,1.9-7L85.9,127.7
				z"/>
		</g>
		<g id="blue_00000101097630683774154780000011809882756339360953_" transform="rotate(180,457,415)">
			<path id="cv_element_00000145050778186532231620000003755173752203584392_" class="st2" d="M147.5,97.2
				c16.8,9.7,22.6,31.2,12.9,48.1s-31.2,22.6-48.1,12.9c-16.8-9.7-22.6-31.2-12.9-48.1c3.1-5.4,7.5-9.8,12.9-12.9l10.6,18.4
				c-6.7,3.9-9,12.4-5.1,19.1s12.4,9,19.1,5.1s9-12.4,5.1-19.1c-1.2-2.1-3-3.9-5.1-5.1L147.5,97.2z"/>
		</g>
		<g id="green_00000023983571863954043300000003226121167080201132_" transform="rotate(240,142,415)">
			<path id="cv_element_00000183224153804462630140000011433583258653829565_" class="st3" d="M85.5,127.7
				c0,19.4-15.8,35.2-35.2,35.2s-35.2-15.8-35.2-35.2c0-19.4,15.8-35.2,35.2-35.2c6.2,0,12.2,1.6,17.6,4.7l-10.6,18.4
				c-6.7-3.9-15.3-1.6-19.1,5.1c-3.9,6.7-1.6,15.3,5.1,19.1c6.7,3.8,15.3,1.6,19.1-5.1c1.2-2.1,1.9-4.5,1.9-7L85.5,127.7z"/>
		</g>
		<g id="red">
			<path id="cv_element" class="st4" d="M73,88.7c-16.8-9.7-22.6-31.2-12.9-48.1S91.4,18,108.2,27.7s22.6,31.2,12.9,48.1
				c-3.1,5.4-7.5,9.8-12.9,12.9L97.6,70.3c6.7-3.9,9-12.4,5.1-19.1s-12.4-9-19.1-5.1s-9,12.4-5.1,19.1c1.2,2.1,3,3.9,5.1,5.1
				L73,88.7z"/>
		</g>
		<g id="blue_00000021114437033769408230000008596229431962922389_" transform="rotate(180,457,415)">
			<path id="cv_element_00000137820835645229480380000006896108259547781252_" class="st2" d="M148.4,97.2
				c16.8,9.7,22.6,31.2,12.9,48.1s-31.2,22.6-48.1,12.9c-16.8-9.7-22.6-31.2-12.9-48.1c3.1-5.4,7.5-9.8,12.9-12.9l10.6,18.4
				c-6.7,3.9-9,12.4-5.1,19.1c3.9,6.7,12.4,9,19.1,5.1s9-12.4,5.1-19.1c-1.2-2.1-3-3.9-5.1-5.1L148.4,97.2z"/>
		</g>
		<g id="green_00000096772022584516101240000010935925662566288769_" transform="rotate(240,142,415)">
			<path id="cv_element_00000056410033568979987670000000868202151749905851_" class="st3" d="M86.4,127.7
				c0,19.4-15.8,35.2-35.2,35.2S16,147.1,16,127.7c0-19.4,15.8-35.2,35.2-35.2c6.2,0,12.2,1.6,17.6,4.7l-10.6,18.4
				c-6.7-3.9-15.3-1.6-19.1,5.1c-3.9,6.7-1.6,15.3,5.1,19.1c6.7,3.9,15.3,1.6,19.1-5.1c1.2-2.1,1.9-4.5,1.9-7H86.4z"/>
		</g>
	</g>
	<text transform="matrix(1 0 0 1 31.6902 68.2241)" class="st5 st6">ROpenCV</text>
	<text transform="matrix(1 0 0 1 68.8962 177.2241)" class="st7 st8">Lite</text>
</g>
</svg>
