<svg xmlns="http://www.w3.org/2000/svg" version="1.1" xmlns:xlink="http://www.w3.org/1999/xlink" xmlns:svgjs="http://svgjs.dev/svgjs" width="181" height="209"><svg version="1.1" id="SvgjsSvg1015" xmlns="http://www.w3.org/2000/svg" xmlns:xlink="http://www.w3.org/1999/xlink" x="0px" y="0px" viewBox="0 0 181 209" style="enable-background:new 0 0 181 209;" xml:space="preserve">
<style type="text/css">
	.st0{fill:#F7F7F7;stroke:#99A5AB;stroke-width:10.67;stroke-linecap:round;stroke-linejoin:round;}
	.st1{opacity:0.5;}
	.st2{fill:#FF0101;}
	.st3{fill:#0101FF;}
	.st4{fill:#01FF01;}
	.st5{font-family:'Courier-Bold';}
	.st6{font-size:28px;}
	.st7{font-family:'Courier';}
	.st8{font-size:18px;}
</style>
<g id="SvgjsG1014">
	<path class="st0" d="M6.7,152.9l83.8,48.4l83.8-48.4V56.1L90.5,7.7L6.7,56.1V152.9z"></path>
	<g class="st1">
		<g id="SvgjsG1013">
			<path id="SvgjsPath1012" class="st2" d="M73,88.7c-16.8-9.7-22.6-31.2-12.9-48.1c9.7-16.8,31.3-22.6,48.1-12.9
				c16.8,9.7,22.6,31.2,12.9,48.1c-3.1,5.3-7.5,9.8-12.9,12.9L97.6,70.3c6.7-3.9,9-12.4,5.1-19.1c-3.9-6.7-12.4-9-19.1-5.1
				c-6.7,3.9-9,12.4-5.1,19.1c1.2,2.1,3,3.9,5.1,5.1C83.6,70.3,73,88.7,73,88.7z"></path>
		</g>
		<g id="SvgjsG1011">
			<path id="SvgjsPath1010" class="st3" d="M148.4,97.2c16.8,9.7,22.6,31.2,12.9,48.1c-9.7,16.8-31.2,22.6-48.1,12.9
				c-16.8-9.7-22.6-31.2-12.9-48.1c3.1-5.3,7.5-9.8,12.9-12.9l10.6,18.4c-6.7,3.9-9,12.4-5.1,19.1c3.9,6.7,12.4,9,19.1,5.1
				c6.7-3.9,9-12.4,5.1-19.1c-1.2-2.1-3-3.9-5.1-5.1L148.4,97.2L148.4,97.2z"></path>
		</g>
		<g id="SvgjsG1009">
			<path id="SvgjsPath1008" class="st4" d="M86.4,127.7c0,19.4-15.8,35.2-35.2,35.2S16,147.1,16,127.7s15.8-35.2,35.2-35.2
				c6.2,0,12.2,1.6,17.6,4.7l-10.6,18.4c-6.7-3.9-15.3-1.6-19.1,5.1s-1.6,15.3,5.1,19.1s15.3,1.6,19.1-5.1c1.2-2.1,1.9-4.5,1.9-7
				L86.4,127.7L86.4,127.7z"></path>
		</g>
	</g>
	<text transform="matrix(1 0 0 1 31.69 68.22)" class="st5 st6" svgjs:data="{&quot;leading&quot;:&quot;1.3&quot;}">ROpenCV</text>
	<text transform="matrix(1 0 0 1 68.9 177.22)" class="st7 st8" svgjs:data="{&quot;leading&quot;:&quot;1.3&quot;}">Lite</text>
</g>
</svg><style>@media (prefers-color-scheme: light) { :root { filter: none; } }
@media (prefers-color-scheme: dark) { :root { filter: none; } }
</style></svg>