<?xml version="1.0" encoding="UTF-8"?><svg id="Layer_1" xmlns="http://www.w3.org/2000/svg" viewBox="0 0 181 209"><defs><style>.cls-1{fill:#0101ff;}.cls-2{fill:#01ff01;}.cls-3{fill:#ff0101;}.cls-4{font-family:Courier, Courier;font-size:18px;}.cls-4,.cls-5{isolation:isolate;}.cls-5{font-family:Courier-Bold, Courier;font-size:28px;font-weight:700;}.cls-6{opacity:.25;}.cls-7{fill:#f7f7f7;stroke:#99a5ab;stroke-linecap:round;stroke-linejoin:round;stroke-width:10.67px;}</style></defs><g id="surface2602"><path class="cls-7" d="m6.7,152.9l83.8,48.4,83.8-48.4V56.1L90.5,7.7,6.7,56.1v96.8Z"/><g class="cls-6"><g id="red"><path id="cv_element" class="cls-3" d="m73.02,88.67c-16.84-9.72-22.6-31.25-12.88-48.08,9.72-16.84,31.25-22.6,48.08-12.88,16.84,9.72,22.6,31.25,12.88,48.08-3.09,5.35-7.53,9.79-12.88,12.88l-10.6-18.36c6.7-3.87,8.99-12.43,5.13-19.13-3.87-6.7-12.43-8.99-19.13-5.13-6.7,3.87-8.99,12.43-5.13,19.13,1.23,2.13,3,3.9,5.13,5.13l-10.6,18.36Z"/></g><g id="blue"><path id="cv_element-2" class="cls-1" d="m148.39,97.19c16.84,9.72,22.6,31.25,12.88,48.08-9.72,16.84-31.25,22.6-48.08,12.88-16.84-9.72-22.6-31.25-12.88-48.08,3.09-5.35,7.53-9.79,12.88-12.88l10.6,18.36c-6.7,3.87-8.99,12.43-5.13,19.13,3.87,6.7,12.43,8.99,19.13,5.13,6.7-3.87,8.99-12.43,5.13-19.13-1.23-2.13-3-3.9-5.13-5.13l10.6-18.36Z"/></g><g id="green"><path id="cv_element-3" class="cls-2" d="m86.4,127.67c0,19.44-15.76,35.2-35.2,35.2-19.44,0-35.2-15.76-35.2-35.2,0-19.44,15.76-35.2,35.2-35.2,6.18,0,12.25,1.63,17.6,4.72l-10.6,18.36c-6.7-3.87-15.26-1.57-19.13,5.13-3.87,6.7-1.57,15.26,5.13,19.13,6.7,3.87,15.26,1.57,19.13-5.13,1.23-2.13,1.88-4.54,1.88-7h21.2Z"/></g></g><text class="cls-5" transform="translate(31.69 68.22)"><tspan x="0" y="0">ROpenCV</tspan></text><text class="cls-4" transform="translate(68.9 177.22)"><tspan x="0" y="0">Lite</tspan></text></g></svg>