<?xml version="1.0" encoding="utf-8"?>
<!-- Generator: Adobe Illustrator 23.0.1, SVG Export Plug-In . SVG Version: 6.00 Build 0)  -->
<svg version="1.1" id="Layer_1" xmlns="http://www.w3.org/2000/svg" xmlns:xlink="http://www.w3.org/1999/xlink" x="0px" y="0px"
	 viewBox="0 0 181 209" style="enable-background:new 0 0 181 209;" xml:space="preserve">
<style type="text/css">
	.st0{fill:#F7F7F7;stroke:#99A5AB;stroke-width:10.6698;stroke-linecap:round;stroke-linejoin:round;stroke-miterlimit:10;}
	.st1{opacity:0.25;}
	.st2{fill:#FF0101;}
	.st3{fill:#0101FF;}
	.st4{fill:#01FF01;}
	.st5{font-family:'Courier-Bold';}
	.st6{font-size:28px;}
	.st7{font-family:'Courier';}
	.st8{font-size:18px;}
</style>
<g id="surface2602">
	<path class="st0" d="M6.7,152.9l83.8,48.4l83.8-48.4V56.1L90.5,7.7L6.7,56.1V152.9z"/>
	<g class="st1">
		<g id="red">
			<path id="cv_element" class="st2" d="M72.5,88.7C55.7,79,49.9,57.5,59.6,40.6S90.9,18,107.7,27.7s22.6,31.2,12.9,48.1
				c-3.1,5.4-7.5,9.8-12.9,12.9L97.1,70.3c6.7-3.9,9-12.4,5.1-19.1s-12.4-9-19.1-5.1s-9,12.4-5.1,19.1c1.2,2.1,3,3.9,5.1,5.1
				L72.5,88.7z"/>
		</g>
		<g id="blue" transform="rotate(180,457,415)">
			<path class="st3" d="M147.9,97.2c16.8,9.7,22.6,31.2,12.9,48.1s-31.2,22.6-48.1,12.9c-16.8-9.7-22.6-31.2-12.9-48.1
				c3.1-5.4,7.5-9.8,12.9-12.9l10.6,18.4c-6.7,3.9-9,12.4-5.1,19.1c3.9,6.7,12.4,9,19.1,5.1s9-12.4,5.1-19.1c-1.2-2.1-3-3.9-5.1-5.1
				L147.9,97.2z"/>
		</g>
		<g id="green" transform="rotate(240,142,415)">
			<path class="st4" d="M85.9,127.7c0,19.4-15.8,35.2-35.2,35.2s-35.2-15.8-35.2-35.2c0-19.4,15.8-35.2,35.2-35.2
				c6.2,0,12.2,1.6,17.6,4.7l-10.6,18.4c-6.7-3.9-15.3-1.6-19.1,5.1c-3.9,6.7-1.6,15.3,5.1,19.1s15.3,1.6,19.1-5.1
				c1.2-2.1,1.9-4.5,1.9-7H85.9z"/>
		</g>
	</g>
	<text transform="matrix(1 0 0 1 31.6902 68.2241)" class="st5 st6">ROpenCV</text>
	<text transform="matrix(1 0 0 1 68.8962 177.2241)" class="st7 st8">Lite</text>
</g>
</svg>
